<svg width="63" height="63" viewBox="0 0 63 63" fill="none" xmlns="http://www.w3.org/2000/svg">
<g id="computer-phone-sync">
<path id="Vector" d="M52.5 45.1138C49.4629 47.25 45.1781 47.25 36.6088 47.25H26.1558C17.5864 47.25 13.3018 47.25 10.2645 45.1138C9.14085 44.3234 8.16349 43.3416 7.3767 42.2129C5.25 39.1619 5.25 34.8579 5.25 26.25C5.25 17.642 5.25 13.338 7.3767 10.2871C8.16349 9.15839 9.14085 8.17661 10.2645 7.38628C13.3018 5.25 17.5864 5.25 26.1558 5.25" stroke="#3D4F60" stroke-width="3.9375" stroke-linecap="round"/>
<path id="Vector_2" d="M31.5 47.25V57.75" stroke="#3D4F60" stroke-width="3.9375"/>
<path id="Vector_3" d="M21 57.75H42" stroke="#3D4F60" stroke-width="3.9375" stroke-linecap="round"/>
<path id="Vector_4" d="M47.25 5.25C52.1997 5.25 54.6745 5.25 56.2123 6.7877C57.75 8.32537 57.75 10.8002 57.75 15.75V26.25C57.75 31.1997 57.75 33.6745 56.2123 35.2123C54.6745 36.75 52.1997 36.75 47.25 36.75H44.625C39.6753 36.75 37.2005 36.75 35.6627 35.2123C34.125 33.6745 34.125 31.1997 34.125 26.25V15.75C34.125 10.8002 34.125 8.32537 35.6627 6.7877C37.2005 5.25 39.6753 5.25 44.625 5.25H47.25Z" stroke="#3D4F60" stroke-width="3.9375" stroke-linecap="round"/>
<path id="Vector_5" d="M45.9375 30.1875H45.9611" stroke="#3D4F60" stroke-width="5.25" stroke-linecap="round" stroke-linejoin="round"/>
</g>
</svg>
