<svg width="63" height="63" viewBox="0 0 63 63" fill="none" xmlns="http://www.w3.org/2000/svg">
<g id="computer-programming-01">
<path id="Vector" d="M36.75 5.25H26.25C17.642 5.25 13.338 5.25 10.2871 7.38628C9.15839 8.17661 8.17661 9.15839 7.38628 10.2871C5.25 13.338 5.25 17.642 5.25 26.25C5.25 34.8579 5.25 39.1619 7.38628 42.2129C8.17661 43.3416 9.15839 44.3234 10.2871 45.1138C13.338 47.25 17.642 47.25 26.25 47.25H36.75C45.3579 47.25 49.6619 47.25 52.7129 45.1138C53.8416 44.3234 54.8234 43.3416 55.6138 42.2129C57.75 39.1619 57.75 34.8579 57.75 26.25C57.75 17.642 57.75 13.338 55.6138 10.2871C54.8234 9.15839 53.8416 8.17661 52.7129 7.38628C49.6619 5.25 45.3579 5.25 36.75 5.25Z" stroke="#3D4F60" stroke-width="3.9375" stroke-linecap="round"/>
<path id="Vector_2" d="M42 21L45.2196 23.7751C46.5733 24.9418 47.25 25.5251 47.25 26.25C47.25 26.9748 46.5733 27.5583 45.2196 28.7248L42 31.5" stroke="#3D4F60" stroke-width="3.9375" stroke-linecap="round" stroke-linejoin="round"/>
<path id="Vector_3" d="M21 21L17.7803 23.7751C16.4268 24.9418 15.75 25.5251 15.75 26.25C15.75 26.9748 16.4268 27.5583 17.7803 28.7248L21 31.5" stroke="#3D4F60" stroke-width="3.9375" stroke-linecap="round" stroke-linejoin="round"/>
<path id="Vector_4" d="M34.125 18.375L28.875 34.125" stroke="#3D4F60" stroke-width="3.9375" stroke-linecap="round" stroke-linejoin="round"/>
<path id="Vector_5" d="M38.4713 57.75L37.372 56.6504C34.8932 54.1719 34.2787 50.3853 35.8463 47.25" stroke="#3D4F60" stroke-width="3.9375" stroke-linecap="round"/>
<path id="Vector_6" d="M23.6262 57.75L24.7257 56.6504C27.2043 54.1719 27.8188 50.3853 26.2512 47.25" stroke="#3D4F60" stroke-width="3.9375" stroke-linecap="round"/>
<path id="Vector_7" d="M18.375 57.75H44.625" stroke="#3D4F60" stroke-width="3.9375" stroke-linecap="round"/>
</g>
</svg>
