<svg width="63" height="63" viewBox="0 0 63 63" fill="none" xmlns="http://www.w3.org/2000/svg">
<g id="computer-video-call">
<path id="Vector" d="M36.75 5.25H26.25C17.642 5.25 13.338 5.25 10.2871 7.38628C9.15839 8.17661 8.17661 9.15839 7.38628 10.2871C5.25 13.338 5.25 17.642 5.25 26.25C5.25 34.8579 5.25 39.1619 7.38628 42.2129C8.17661 43.3416 9.15839 44.3234 10.2871 45.1138C13.338 47.25 17.642 47.25 26.25 47.25H36.75C45.3579 47.25 49.6619 47.25 52.7129 45.1138C53.8416 44.3234 54.8234 43.3416 55.6138 42.2129C57.75 39.1619 57.75 34.8579 57.75 26.25C57.75 17.642 57.75 13.338 55.6138 10.2871C54.8234 9.15839 53.8416 8.17661 52.7129 7.38628C49.6619 5.25 45.3579 5.25 36.75 5.25Z" stroke="#3D4F60" stroke-width="3.9375" stroke-linecap="round"/>
<path id="Vector_2" d="M38.0625 57.75L37.2343 56.6504C35.3674 54.1719 34.9044 50.3853 36.0854 47.25M24.9375 57.75L25.7657 56.6504C27.6326 54.1719 28.0956 50.3853 26.9146 47.25" stroke="#3D4F60" stroke-width="3.9375" stroke-linecap="round"/>
<path id="Vector_3" d="M18.375 57.75H44.625" stroke="#3D4F60" stroke-width="3.9375" stroke-linecap="round"/>
<path id="Vector_4" d="M21 36.75C25.826 29.9371 37.0619 29.5654 42 36.75M36.75 21C36.75 23.8995 34.3996 26.25 31.5 26.25C28.6004 26.25 26.25 23.8995 26.25 21C26.25 18.1005 28.6004 15.75 31.5 15.75C34.3996 15.75 36.75 18.1005 36.75 21Z" stroke="#3D4F60" stroke-width="3.9375" stroke-linecap="round"/>
</g>
</svg>
